<?xml version="1.0" standalone="no"?>
<!DOCTYPE svg PUBLIC "-//W3C//DTD SVG 20010904//EN"
 "http://www.w3.org/TR/2001/REC-SVG-20010904/DTD/svg10.dtd">
<svg version="1.0" xmlns="http://www.w3.org/2000/svg"
 width="1024.000000pt" height="1024.000000pt" viewBox="0 0 1024.000000 1024.000000"
 preserveAspectRatio="xMidYMid meet">
<metadata>
Created by potrace 1.11, written by Peter Selinger 2001-2013
</metadata>
<g transform="translate(0.000000,1024.000000) scale(0.100000,-0.100000)"
fill="#000000" stroke="none">
<path d="M2117 9614 c-1 -1 -45 -4 -97 -7 -81 -5 -150 -16 -269 -41 -150 -32
-379 -145 -531 -261 -71 -54 -205 -184 -260 -250 -128 -156 -262 -433 -296
-609 -2 -12 -6 -32 -9 -46 -5 -27 -10 -59 -20 -129 -4 -24 -7 -134 -8 -243 0
-109 -4 -193 -9 -186 -5 9 -8 10 -8 1 0 -6 4 -15 10 -18 5 -3 10 -11 10 -16 0
-6 -4 -8 -8 -5 -10 6 -10 -50 0 -60 11 -10 10 -26 0 -20 -10 6 -9 -85 1 -101
5 -8 3 -13 -4 -13 -10 0 -10 -3 -1 -12 13 -13 16 -32 4 -24 -10 6 -9 -55 1
-71 5 -8 3 -13 -4 -13 -10 0 -10 -3 -1 -12 13 -13 16 -32 4 -24 -10 6 -9 -55
1 -71 5 -8 3 -13 -4 -13 -10 0 -10 -3 -1 -12 13 -13 16 -32 4 -24 -10 6 -9
-55 1 -71 5 -8 3 -13 -4 -13 -10 0 -10 -3 -1 -12 13 -13 16 -32 4 -24 -10 6
-9 -55 1 -71 5 -8 3 -13 -4 -13 -10 0 -10 -3 -1 -12 13 -13 16 -32 4 -24 -10
6 -9 -55 1 -71 5 -8 3 -13 -4 -13 -10 0 -10 -3 -1 -12 13 -13 16 -32 4 -24
-10 6 -9 -55 1 -71 5 -8 3 -13 -4 -13 -10 0 -10 -3 -1 -12 13 -13 16 -32 4
-24 -10 6 -9 -55 1 -71 5 -8 3 -13 -4 -13 -10 0 -10 -3 -1 -12 13 -13 16 -32
4 -24 -10 6 -9 -55 1 -71 5 -8 3 -13 -4 -13 -10 0 -10 -3 -1 -12 13 -13 16
-32 4 -24 -10 6 -9 -55 1 -71 5 -8 3 -13 -4 -13 -10 0 -10 -3 -1 -12 13 -13
17 -32 4 -24 -10 6 -9 -100 0 -110 11 -10 10 -26 0 -20 -10 6 -10 -50 0 -60
11 -10 10 -26 0 -20 -10 6 -10 -50 0 -60 11 -10 10 -26 0 -20 -10 6 -10 -50 0
-60 11 -10 10 -26 0 -20 -10 6 -10 -50 0 -60 11 -10 10 -26 0 -20 -10 6 -10
-50 1 -60 10 -10 9 -26 -1 -20 -10 6 -10 -50 1 -60 10 -10 9 -26 -1 -20 -10 6
-10 -50 1 -60 10 -10 9 -26 -1 -20 -10 6 -9 -85 1 -101 5 -8 3 -13 -4 -13 -10
0 -10 -3 -1 -12 13 -13 16 -32 4 -24 -10 6 -9 -55 1 -71 5 -8 3 -13 -4 -13
-10 0 -10 -3 -1 -12 13 -13 16 -32 4 -24 -10 6 -9 -55 1 -71 5 -8 3 -13 -4
-13 -10 0 -10 -3 -1 -12 13 -13 16 -32 4 -24 -10 6 -9 -55 1 -71 5 -8 3 -13
-4 -13 -10 0 -10 -3 -1 -12 13 -13 16 -32 4 -24 -10 6 -9 -55 1 -71 5 -8 3
-13 -4 -13 -10 0 -10 -3 -1 -12 13 -13 16 -32 4 -24 -10 6 -9 -55 1 -71 5 -8
3 -13 -4 -13 -10 0 -10 -3 -1 -12 13 -13 16 -32 4 -24 -10 6 -9 -55 1 -71 5
-8 3 -13 -4 -13 -10 0 -10 -3 -1 -12 13 -13 16 -32 4 -24 -10 6 -9 -55 1 -71
5 -8 3 -13 -4 -13 -10 0 -10 -3 -1 -12 13 -13 16 -32 4 -24 -10 6 -9 -55 1
-71 5 -8 3 -13 -4 -13 -10 0 -10 -3 -1 -12 13 -13 16 -32 4 -24 -10 6 -9 -55
1 -71 5 -8 3 -13 -4 -13 -10 0 -10 -3 -1 -12 13 -13 17 -32 4 -24 -10 6 -9
-100 1 -110 10 -10 9 -26 -1 -20 -10 6 -10 -50 1 -60 10 -10 9 -26 -1 -20 -10
6 -10 -50 1 -60 10 -10 9 -26 -1 -20 -10 6 -10 -50 1 -60 10 -10 9 -26 -1 -20
-10 6 -10 -50 1 -60 10 -10 9 -26 -1 -20 -10 6 -10 -50 1 -60 10 -10 9 -26 -1
-20 -10 6 -10 -50 1 -60 10 -10 9 -26 -1 -20 -10 6 -10 -50 1 -60 10 -10 9
-26 -1 -20 -10 6 -9 -85 1 -101 5 -8 3 -13 -4 -13 -10 0 -10 -3 -1 -12 13 -13
16 -32 4 -24 -10 6 -9 -55 1 -71 5 -8 3 -13 -4 -13 -10 0 -10 -3 -1 -12 13
-13 16 -32 4 -24 -10 6 -9 -55 1 -71 5 -8 3 -13 -4 -13 -10 0 -10 -3 -1 -12
13 -13 16 -32 4 -24 -10 6 -9 -55 1 -71 5 -8 3 -13 -4 -13 -10 0 -10 -3 -1
-12 13 -13 16 -32 4 -24 -10 6 -9 -55 1 -71 5 -8 3 -13 -4 -13 -10 0 -10 -3
-1 -12 13 -13 16 -32 4 -24 -10 6 -9 -55 1 -71 5 -8 3 -13 -4 -13 -10 0 -10
-3 -1 -12 13 -13 16 -32 4 -24 -10 6 -9 -55 1 -71 5 -8 3 -13 -4 -13 -10 0
-10 -3 -1 -12 13 -13 16 -32 4 -24 -10 6 -9 -55 1 -71 5 -8 3 -13 -4 -13 -10
0 -10 -3 -1 -12 13 -13 16 -32 4 -24 -10 6 -9 -55 1 -71 5 -8 3 -13 -4 -13
-10 0 -10 -3 -1 -12 13 -13 16 -32 4 -24 -10 6 -9 -55 1 -71 5 -8 3 -13 -4
-13 -10 0 -10 -3 -1 -12 13 -13 17 -32 4 -24 -10 6 -9 -100 1 -110 10 -10 9
-26 -1 -20 -10 6 -10 -50 1 -60 10 -10 9 -26 -1 -20 -10 6 -10 -50 1 -60 10
-10 9 -26 -1 -20 -10 6 -10 -50 1 -60 10 -10 9 -26 -1 -20 -10 6 -10 -50 1
-60 10 -10 9 -26 -1 -20 -10 6 -10 -50 1 -60 12 -12 8 -26 -5 -18 -8 5 -7 0 2
-11 9 -11 10 -16 3 -11 -7 4 -13 2 -13 -3 0 -6 4 -11 8 -11 4 0 9 -82 10 -182
2 -218 3 -237 39 -433 10 -60 76 -241 115 -319 149 -297 392 -539 685 -681
114 -56 116 -57 208 -85 115 -35 126 -38 215 -51 47 -7 88 -18 92 -23 5 -7 8
-6 8 3 0 12 3 12 12 3 18 -18 6234 -17 6241 0 4 10 6 9 6 -1 1 -9 5 -10 14 -3
6 5 36 13 65 16 30 4 75 11 100 17 26 6 57 13 70 15 59 12 187 60 287 110 445
219 766 665 822 1141 4 35 10 50 17 46 6 -4 5 1 -3 10 -9 11 -10 17 -2 17 8 0
11 862 11 3281 0 1804 -4 3278 -8 3275 -4 -2 -8 3 -8 12 -3 80 -37 235 -76
347 -163 469 -560 835 -1040 959 -92 24 -132 31 -236 42 -42 5 -6139 12 -6145
8z"/>
</g>
</svg>
